<?xml version="1.0" encoding="UTF-8"?>
<svg id="Layer_1" data-name="Layer 1" xmlns="http://www.w3.org/2000/svg" viewBox="0 0 18 9.21">
  <defs>
    <style>
      .cls-1 {
        fill: #fff;
      }
    </style>
  </defs>
  <path class="cls-1" d="M0,9.21L2.2,0h1.28L1.26,9.21H0Z"/>
  <path class="cls-1" d="M12.19,7l1.67.3c-.23.64-.58,1.11-1.05,1.43-.47.32-1.07.48-1.8.48-.45,0-.87-.07-1.26-.22s-.73-.37-1.04-.66c-.29.25-.66.46-1.11.63s-.92.26-1.41.26c-.69,0-1.22-.18-1.61-.54-.38-.36-.58-.81-.58-1.36,0-.33.07-.62.2-.87.14-.26.3-.45.49-.6.19-.14.46-.27.8-.37.16-.05.64-.16,1.45-.33.4-.08.74-.17,1.03-.27v-.17c0-.31-.09-.54-.26-.7-.17-.15-.44-.23-.81-.23-.32,0-.58.07-.77.2-.19.13-.33.34-.41.61l-1.55-.3c.2-.62.52-1.08.96-1.38.44-.29,1.1-.44,1.99-.44.42,0,.8.05,1.13.15.33.1.61.25.85.45.25-.2.52-.35.81-.45.29-.1.61-.15.94-.15.65,0,1.2.14,1.64.41.45.27.8.68,1.06,1.21.26.53.38,1.28.38,2.26h-4.29c.07.55.22.95.46,1.2.24.25.53.37.88.37.29,0,.53-.07.73-.22.2-.15.36-.38.46-.68ZM7.97,5.97c-.94.25-1.44.38-1.52.41-.27.09-.46.2-.57.32-.11.13-.16.27-.16.44,0,.23.09.44.26.6s.41.25.69.25c.3,0,.58-.1.84-.29.19-.14.32-.32.37-.53s.08-.62.08-1.21ZM12.26,5.27c-.02-.36-.07-.61-.15-.77-.1-.23-.25-.4-.46-.53-.2-.13-.44-.19-.72-.19-.24,0-.45.06-.63.17-.18.11-.32.28-.43.5-.14.3-.21.57-.19.83h2.57Z"/>
  <path class="cls-1" d="M14.51,9.21L16.72,0h1.28l-2.23,9.21h-1.26Z"/>
</svg>